# xmcd
#
# Track frame offsets: 
#        150
#        26936
#        47765
#        67109
#        83479
#        103156
#        132639
#        160609
#        177732
#        198164
#        217667
#
# Disc length: 3094 seconds
#
# Revision: 1
# Processed by: cddbd v1.5.2PL0 Copyright (c) Steve Scherf et al.
# Submitted via: ExactAudioCopy v1.0b3
#
DISCID=9a0c140b
DTITLE=Various Artist - Contemporary Blues Interpret The "Rolling Sto
DTITLE=nes"
DYEAR=2008
DGENRE=Blues
TTITLE0=(I Can't Get No) Satisfaction - Junior Wells
TTITLE1=You Can't Always Get What You Want - Luther Allison
TTITLE2=Tumblin' Dice - Johnny Copeland
TTITLE3=Sway - Alvin Younblood Hart
TTITLE4=Under My Thumb - Lucky Peterson
TTITLE5=Wild Horses - Otis Clay
TTITLE6=Ventilator Blues -  Clarence "Gatemouth" Brown
TTITLE7=I've Been Loving You Too Long - Ike and Tina Turner
TTITLE8=Heart Of Stone - Joe Louis Walker
TTITLE9=Midnight Rambler - Larry McCray
TTITLE10=It's All Over Now - Bobby Womack
EXTD=YEAR: 2008
EXTT0=
EXTT1=
EXTT2=
EXTT3=
EXTT4=
EXTT5=
EXTT6=
EXTT7=
EXTT8=
EXTT9=
EXTT10=
PLAYORDER=
